<svg width="36" height="28" viewBox="0 0 36 28" fill="none" xmlns="http://www.w3.org/2000/svg">
<path d="M32.7273 0.823529C30.9109 0.247059 28.9145 0 27 0C23.8091 0 20.3727 0.658823 18 2.47059C15.6273 0.658823 12.1909 0 9 0C5.80909 0 2.37273 0.658823 0 2.47059V26.6C0 27.0118 0.409091 27.4235 0.818182 27.4235C0.981818 27.4235 1.06364 27.3412 1.22727 27.3412C3.43636 26.2706 6.62727 25.5294 9 25.5294C12.1909 25.5294 15.6273 26.1882 18 28C20.2091 26.6 24.2182 25.5294 27 25.5294C29.7 25.5294 32.4818 26.0235 34.7727 27.2588C34.9364 27.3412 35.0182 27.3412 35.1818 27.3412C35.5909 27.3412 36 26.9294 36 26.5176V2.47059C35.0182 1.72941 33.9545 1.23529 32.7273 0.823529ZM32.7273 23.0588C30.9273 22.4824 28.9636 22.2353 27 22.2353C24.2182 22.2353 20.2091 23.3059 18 24.7059V5.76471C20.2091 4.36471 24.2182 3.29412 27 3.29412C28.9636 3.29412 30.9273 3.54118 32.7273 4.11765V23.0588Z" fill="#83E4E4"/>
</svg>
