<svg width="35" height="30" viewBox="0 0 35 30" fill="none" xmlns="http://www.w3.org/2000/svg">
<path d="M31.7593 4.61539H26.25L24.9375 0.873627C24.8468 0.617588 24.6807 0.396271 24.4617 0.239908C24.2427 0.0835442 23.9816 -0.00024009 23.7141 5.1677e-07H11.2859C10.739 5.1677e-07 10.2488 0.350275 10.0666 0.873627L8.75 4.61539H3.24074C1.45023 4.61539 0 6.09066 0 7.91209V26.7033C0 28.5247 1.45023 30 3.24074 30H31.7593C33.5498 30 35 28.5247 35 26.7033V7.91209C35 6.09066 33.5498 4.61539 31.7593 4.61539ZM17.5 23.4066C13.919 23.4066 11.0185 20.456 11.0185 16.8132C11.0185 13.1703 13.919 10.2198 17.5 10.2198C21.081 10.2198 23.9815 13.1703 23.9815 16.8132C23.9815 20.456 21.081 23.4066 17.5 23.4066ZM13.6111 16.8132C13.6111 17.8624 14.0208 18.8686 14.7501 19.6105C15.4794 20.3524 16.4686 20.7692 17.5 20.7692C18.5314 20.7692 19.5206 20.3524 20.2499 19.6105C20.9792 18.8686 21.3889 17.8624 21.3889 16.8132C21.3889 15.764 20.9792 14.7577 20.2499 14.0158C19.5206 13.2739 18.5314 12.8571 17.5 12.8571C16.4686 12.8571 15.4794 13.2739 14.7501 14.0158C14.0208 14.7577 13.6111 15.764 13.6111 16.8132Z" fill="#EB5757"/>
</svg>
