<svg width="26" height="21" viewBox="0 0 26 21" fill="none" xmlns="http://www.w3.org/2000/svg">
<path d="M21.7457 8.33774L8.4535 0.944024L6.73256 3.57134L7.56332 4.03345L7.13309 4.69027L12.1177 7.46292C12.338 7.58548 12.504 7.77222 12.5791 7.98206C12.6542 8.1919 12.6323 8.40765 12.5182 8.58186L12.088 9.23868C11.8598 9.58709 11.8159 10.0186 11.9662 10.4383C12.1164 10.858 12.4484 11.2314 12.889 11.4766L15.697 13.0385C16.0127 13.2141 16.2088 13.5203 16.2038 13.8222L16.1353 18.1663C16.1302 18.4681 16.3223 18.7632 16.638 18.9388L19.446 20.5007C19.446 20.5007 21.9383 21.887 21.1967 16.0976C21.1967 16.0976 20.4253 12.084 23.7484 13.9324L25.8996 10.6483L25.0688 10.1862L25.0836 9.29829L22.5914 7.91197L21.7457 8.33774ZM12.9187 9.70079L13.349 9.04396C13.4631 8.86976 13.66 8.75138 13.8965 8.71486C14.133 8.67835 14.3896 8.72668 14.61 8.84924L15.4407 9.31135C15.4407 9.31135 15.8413 10.4303 14.5803 10.625C15.0209 10.8701 15.5342 10.9668 16.0072 10.8938C16.4801 10.8207 16.8741 10.584 17.1023 10.2356C17.3226 10.3581 17.4886 10.5449 17.5637 10.7547C17.6388 10.9645 17.6169 11.1803 17.5028 11.3545L17.0726 12.0113C16.9585 12.1855 16.7615 12.3039 16.525 12.3404C16.2885 12.3769 16.0319 12.3286 15.8116 12.206L13.3193 10.8197C13.0989 10.6972 12.933 10.5104 12.8578 10.3006C12.7827 10.0907 12.8046 9.87499 12.9187 9.70079Z" fill="#83E4E4"/>
<path d="M4.17926 8.36171L17.1248 0.710938L19.0398 3.25975L18.2307 3.73792L18.7094 4.37512L13.8548 7.24416C13.6403 7.37098 13.4849 7.55974 13.423 7.76891C13.361 7.97809 13.3975 8.19054 13.5245 8.35954L14.0033 8.99674C14.2572 9.33473 14.3303 9.75964 14.2064 10.178C14.0824 10.5963 13.7717 10.9739 13.3426 11.2275L10.6078 12.8437C10.3004 13.0254 10.1225 13.333 10.1477 13.6309L10.5065 17.9184C10.5318 18.2163 10.3572 18.5127 10.0498 18.6944L7.31502 20.3106C7.31502 20.3106 4.88774 21.7451 5.25162 16.0092C5.25162 16.0092 5.76391 12.0259 2.52753 13.9386L0.133789 10.7526L0.942883 10.2744L0.868681 9.39811L3.29596 7.96359L4.17926 8.36171ZM13.1942 9.47491L12.7154 8.83771C12.5884 8.66871 12.3814 8.55702 12.1399 8.52719C11.8984 8.49737 11.6422 8.55186 11.4276 8.67868L10.6185 9.15685C10.6185 9.15685 10.2881 10.2722 11.576 10.4313C11.1468 10.6849 10.6343 10.7939 10.1513 10.7342C9.66826 10.6746 9.25423 10.4512 9.00029 10.1132C8.7857 10.24 8.63034 10.4288 8.56839 10.638C8.50644 10.8471 8.54297 11.0596 8.66994 11.2286L9.14869 11.8658C9.27566 12.0348 9.48268 12.1465 9.72419 12.1763C9.96571 12.2061 10.2219 12.1516 10.4365 12.0248L12.8638 10.5903C13.0784 10.4635 13.2338 10.2747 13.2957 10.0655C13.3577 9.85636 13.3211 9.64391 13.1942 9.47491Z" fill="#83E4E4"/>
</svg>
