<svg width="11" height="10" viewBox="0 0 11 10" fill="none" xmlns="http://www.w3.org/2000/svg">
<path d="M9.9 0H2.58115C2.35736 0.000711 2.13907 0.0663993 1.95513 0.18838C1.77119 0.310361 1.63027 0.48289 1.551 0.683158L0.0346507 4.55211C0.0116275 4.6112 -0.000109096 4.67377 7.64167e-07 4.73684V5.78947C7.64167e-07 6.37 0.493351 6.84211 1.1 6.84211H4.1866L3.5695 8.61421C3.51448 8.77244 3.49945 8.9409 3.52565 9.10577C3.55185 9.27063 3.61852 9.4272 3.7202 9.56263C3.927 9.83632 4.2603 10 4.6134 10H5.5C5.66335 10 5.8179 9.93053 5.92295 9.81053L8.50795 6.84211H9.9C10.5066 6.84211 11 6.37 11 5.78947V1.05263C11 0.472105 10.5066 0 9.9 0ZM5.24205 8.94737H4.6123L5.4714 6.48211C5.49892 6.40303 5.50643 6.31882 5.49329 6.23642C5.48016 6.15402 5.44676 6.07579 5.39585 6.00816C5.34494 5.94053 5.27797 5.88543 5.20046 5.84741C5.12294 5.8094 5.0371 5.78954 4.95 5.78947H1.1V4.83211L2.58115 1.05263H7.7V6.12526L5.24205 8.94737ZM8.8 5.78947V1.05263H9.9L9.90055 5.78947H8.8Z" fill="#83E4E4"/>
</svg>
