<svg width="78" height="78" viewBox="0 0 78 78" fill="none" xmlns="http://www.w3.org/2000/svg">
<path d="M35.9988 9.99375C36.1816 9.99375 36.4102 10.0852 36.6082 10.3594C35.7246 9.09492 37.5984 9.64336 37.7051 8.43984C38.7715 7.64766 38.3906 7.12969 38.6953 7.09922L39.0305 6.825C38.3754 7.06875 38.1469 7.11445 37.9641 7.11445H37.6594C37.4309 7.11445 37.05 7.16016 36.1512 7.43437C34.0945 7.58672 32.6168 9.81094 31.916 9.87188C31.2 10.2527 31.2305 10.3289 31.398 10.3289C31.4438 10.3289 31.5047 10.3137 31.5656 10.3137C31.6266 10.3137 31.6723 10.2984 31.718 10.2984C31.8855 10.2984 31.8398 10.3746 30.8648 10.8316C31.0934 10.8926 29.1586 11.7457 29.1434 13.0863C29.0824 13.6043 29.2957 13.9547 29.6461 13.9547C29.9508 13.9547 30.3316 13.7262 30.743 13.1473C32.1141 11.5629 35.0086 11.4105 36.2578 10.4508C35.4809 10.3898 35.6332 9.99375 35.9988 9.99375ZM29.0367 10.527C28.8996 10.527 29.0824 10.3594 29.2805 10.1918C29.4937 10.0242 29.7375 9.85664 29.7375 9.85664L29.7223 9.87188C30.5449 9.55195 30.0422 9.47578 30.484 9.2625H30.4535C30.3621 9.2625 30.5297 9.14062 30.682 9.00352C30.8344 8.88164 30.9715 8.74453 30.8344 8.74453C30.7582 8.74453 30.5602 8.79023 30.225 8.92734C30.3316 8.775 30.743 8.66836 31.3219 8.34844C30.484 8.62266 29.8289 8.79023 29.7527 8.79023C29.6918 8.79023 30.0422 8.66836 31.0934 8.34844C31.1391 8.34844 31.1848 8.36367 31.2152 8.36367C31.3219 8.36367 31.3676 8.3332 31.3523 8.30273C31.3371 8.27227 31.2762 8.25703 31.1695 8.25703C29.6613 8.37891 28.534 9.32344 28.8691 9.44531C29.0672 9.38437 29.2043 9.35391 29.2957 9.35391C29.4937 9.35391 29.4023 9.52148 29.0062 9.76523C29.1891 10.1918 25.9594 11.2887 25.5938 11.6848C25.7766 11.5781 25.8984 11.5477 25.9594 11.5477C26.2031 11.5477 25.8832 12.0199 25.5633 12.2484C25.7613 12.4313 25.9137 12.4922 26.0355 12.4922C26.3555 12.4922 26.4926 12.0504 26.7668 11.9133C26.8277 12.0352 26.8887 12.0961 26.9648 12.0961C27.2238 12.0961 27.5438 11.4563 27.8027 11.1211C27.8789 11.1973 27.9703 11.2582 28.0922 11.2582C28.3359 11.2582 28.7016 11.0602 29.2805 10.4965C29.1586 10.5117 29.0672 10.527 29.0367 10.527ZM25.5328 13.3301C24.9844 13.6652 24.6949 13.8023 24.573 13.8023C24.3445 13.8023 24.6492 13.3758 24.9234 12.934C25.1977 12.5074 25.4414 12.0809 25.091 12.0809C24.9234 12.0809 24.6187 12.1723 24.1312 12.416C22.8059 13.2996 20.5664 15.7371 19.5762 15.7371H19.4848C21.0844 14.5641 20.6121 12.2637 22.8516 11.6695C25.0605 10.4051 26.5688 10.8012 28.534 9.35391C27.9551 9.64336 27.102 9.96328 26.9039 9.96328C26.782 9.96328 26.9648 9.81094 27.757 9.43008C27.6809 9.44531 27.6199 9.46055 27.5742 9.46055C27.041 9.46055 31.0781 8.01328 31.2762 7.98281C29.6156 8.21133 26.9344 9.59766 26.5687 9.59766C26.523 9.59766 26.523 9.58242 26.523 9.55195C26.584 9.50625 26.584 9.47578 26.523 9.47578C26.325 9.47578 25.5023 9.75 24.6645 10.0242C23.8418 10.2984 23.0039 10.5879 22.8211 10.5879C22.7602 10.5879 22.7602 10.5574 22.8516 10.4965C15.6609 14.5793 9.65859 21.4652 7.78477 29.6309C8.56172 31.4133 8.02852 34.8105 9.3082 35.8008C10.7707 37.0348 8.05898 40.6148 8.775 42.8238C9.50625 46.8152 12.6598 49.5422 12.9949 53.625C13.5738 56.4281 15.6914 59.8559 16.575 61.6383C17.2453 62.3086 19.0887 64.2434 19.4086 64.2434C19.5305 64.2434 19.4543 63.9539 18.9668 63.177C18.6621 62.3086 16.8949 60.0387 17.748 60.0387C17.7938 60.0387 17.8395 60.0387 17.9004 60.0539C16.8492 58.9875 20.2313 59.277 17.8699 57.8297C17.5957 57.4945 17.5348 57.3879 17.5957 57.3879C17.6719 57.3879 17.8852 57.5098 18.1289 57.6316C18.3879 57.7535 18.6926 57.8754 18.9363 57.8754C19.3172 57.8754 19.5762 57.6164 19.4238 56.6719C19.4848 56.7023 19.5457 56.7023 19.5914 56.7023C19.9875 56.7023 19.8504 55.9254 19.8809 55.1484C19.9113 54.3715 20.1094 53.5945 21.1758 53.5945C21.2977 53.5945 21.4348 53.6098 21.5719 53.625C24.0398 52.2844 21.8918 48.5824 24.7254 47.2266C24.6187 44.1492 20.4902 43.9969 18.9363 42.7477C18.6773 42.9 18.4336 42.9457 18.1898 42.9457C17.9156 42.9457 17.6719 42.8848 17.4586 42.8086C17.2453 42.7477 17.0473 42.6715 16.9102 42.6715C16.8797 42.6715 16.8492 42.6715 16.8188 42.6867C19.4695 41.9859 17.5348 38.2992 15.341 38.2992H15.1887C15.0211 36.6996 14.1984 37.309 14.107 35.9836C13.9699 36.0598 13.8328 36.0902 13.6957 36.0902C13.3301 36.0902 12.9949 35.8312 12.7055 35.5875C12.416 35.3285 12.1723 35.0848 11.959 35.0848C11.7914 35.0848 11.6391 35.2523 11.502 35.7398C11.6543 34.9934 11.6086 34.7496 11.4562 34.7496C11.3039 34.7496 11.0297 35.0086 10.725 35.2676C10.4355 35.5266 10.1004 35.7855 9.84141 35.7855H9.76523C7.98281 34.5211 9.78047 32.2816 8.83594 30.5602C9.44531 29.9051 9.68906 28.793 9.41484 28.793C9.27773 28.793 9.00352 29.0672 8.57695 29.8137C7.96758 28.2598 9.58242 24.7406 10.9535 24.5426C10.9992 24.5426 11.0297 24.5273 11.0754 24.5273C11.3191 24.5273 11.5629 24.6492 11.7762 24.9082C11.898 25.6242 11.5934 27.1324 11.7152 27.1324C11.7762 27.1324 11.898 26.8277 12.2027 26.0355C12.5988 24.2227 15.3715 22.9125 15.6609 21.8004C15.6762 21.8156 15.6762 21.8156 15.6914 21.8156C16.0113 21.8156 18.068 20.0027 18.9668 19.8047C19.3172 19.4543 19.5609 19.3324 19.7438 19.3324C19.9418 19.3324 20.0484 19.4848 20.1246 19.6219C20.2008 19.7742 20.2617 19.9113 20.3379 19.9113C20.3988 19.9113 20.475 19.8199 20.6121 19.5609C20.1398 18.6316 21.3586 17.748 21.0234 17.748C20.9016 17.748 20.5359 17.8699 19.7895 18.1746C19.6676 18.2355 19.6066 18.2508 19.5762 18.2508C19.4848 18.2508 19.8504 18.007 20.3836 17.7633C20.9168 17.5195 21.5871 17.2758 22.1508 17.2758C22.425 17.2758 22.6688 17.3367 22.8516 17.4891C25.2129 16.9254 23.918 16.1484 24.0398 16.1484H24.0703C24.7406 15.7523 24.5426 14.2594 25.5328 13.3301ZM14.9754 19.5609C14.9449 19.5609 15.082 19.3629 15.5391 18.7992C16.4836 18.0984 17.2453 17.6262 16.377 17.1691C16.7578 17.0016 17.1234 16.8035 17.4738 16.5902C17.4586 17.3367 16.834 19.1496 16.4988 19.1496C16.4227 19.1496 16.3465 19.043 16.316 18.8145C16.5141 18.4641 16.5293 18.327 16.4531 18.327C16.3312 18.327 15.9809 18.6316 15.6457 18.9516C15.3105 19.241 15.0059 19.5609 14.9754 19.5609ZM15.8438 19.9723C15.4324 19.9723 15.5086 19.7133 16.773 19.4543C17.3215 19.3781 16.8949 19.4086 17.55 19.2563C16.9102 19.7742 16.1941 19.9723 15.8438 19.9723ZM39.5332 18.4336C39.716 18.4031 39.8531 18.4031 39.9598 18.4031C40.4016 18.4031 40.2035 18.5859 39.9445 18.7687C39.6855 18.9516 39.3656 19.1344 39.5484 19.1344C39.6551 19.1344 39.9445 19.0734 40.5387 18.9059C43.5398 18.6926 39.3656 16.1484 40.0359 15.2953L39.8531 15.2344C38.6191 16.8035 40.6758 16.834 39.5332 18.4336ZM38.284 18.4945C38.4973 18.4945 38.7715 18.2508 39.0609 17.5652C39.457 17.093 39.2895 17.032 38.8629 16.8035C37.6898 17.1082 37.7965 18.4945 38.284 18.4945ZM48.7957 23.3238C48.75 23.3238 48.7195 23.3391 48.6891 23.3543C48.8109 23.3848 48.9328 23.4152 49.0547 23.4152C48.9328 23.3543 48.8566 23.3238 48.7957 23.3238ZM69.2555 27.1172C69.5145 27.6809 69.6516 27.9094 69.6668 27.9094C69.7734 27.9094 67.7473 22.9734 66.9094 22.0898C62.5371 14.8992 55.3465 9.39961 47.1504 7.34297H47.1352C46.9219 7.34297 47.1656 7.44961 47.4551 7.55625C47.7445 7.66289 48.0949 7.76953 48.0949 7.76953C48.0949 7.76953 47.8664 7.69336 47.1656 7.49531C46.3887 7.2668 45.5965 7.09922 44.7891 7.03828C44.652 7.08398 48.1254 8.45508 50.4563 9.17109C49.6793 8.92734 48.8719 8.71406 48.6738 8.71406C48.5367 8.71406 48.6738 8.80547 49.2375 9.04922C48.552 8.85117 48.2625 8.75977 48.232 8.75977C48.1863 8.75977 49.1461 9.07969 50.0449 9.39961C50.959 9.71953 51.8273 10.0395 51.5836 10.0395C51.5227 10.0395 51.3551 10.009 51.0961 9.96328C51.873 10.3898 52.1473 10.5574 52.1016 10.5574C52.0254 10.5574 51.0656 10.1004 50.0754 9.64336C49.1004 9.18633 48.1102 8.7293 47.973 8.7293C47.8969 8.7293 48.0949 8.88164 48.7652 9.27773C49.6793 9.67383 50.5934 10.0699 50.3344 10.0699C50.2125 10.0699 49.8621 9.99375 49.1766 9.7957C50.7 10.5727 48.0949 10.268 48.9785 11.3191C48.491 10.8621 48.293 10.7098 48.2473 10.7098C48.2016 10.7098 48.3234 10.8926 48.4453 11.0754C48.5672 11.2582 48.6586 11.441 48.552 11.441H48.5215C49.5879 12.5988 47.775 11.5629 49.0699 12.5988C48.0949 12.157 46.4344 11.4258 47.1809 11.4258C47.3637 11.4258 47.7141 11.4715 48.2625 11.5934C47.2723 10.4355 44.4691 10.3898 44.4082 10.2527C43.7074 10.2984 43.6922 10.8316 43.8141 11.8066C43.7988 13.3453 42.2906 13.3758 42.4887 14.2594C42.4887 14.2441 42.5039 14.2441 42.5039 14.2441C42.5344 14.2441 42.5496 14.5488 42.641 14.8687C42.7477 15.1734 42.9305 15.4934 43.3266 15.4934C43.5398 15.4934 43.8141 15.402 44.1492 15.1734C44.6215 16.0266 45.048 16.3312 45.3832 16.3312C45.8859 16.3312 46.1906 15.6457 46.1602 15.0211C45.6117 14.7164 44.8957 12.1875 45.6879 12.1875C45.8098 12.1875 45.9621 12.2484 46.1602 12.3855C44.9262 15.4172 51.0352 13.391 47.577 14.7773C48.3539 15.798 47.0895 15.7523 47.4551 16.9863C46.8609 17.1539 46.2059 17.3062 45.627 17.3062C44.7738 17.3062 44.1188 16.9406 44.1949 15.6609C43.1285 16.2246 45.2613 18.1289 43.1438 18.1289H43.0219C42.0012 20.0027 38.1773 19.3629 41.1785 21.3434C41.3461 22.2117 40.7977 22.3641 40.0969 22.3641C39.9141 22.3641 39.716 22.3488 39.518 22.3336C39.3199 22.3184 39.1219 22.3184 38.9391 22.3184C38.1469 22.3184 37.5832 22.5164 38.0707 23.7504C37.7203 25.0301 38.543 25.5938 39.5484 25.5938C40.7672 25.5938 42.2602 24.8016 42.3668 23.4914C43.0219 22.5012 43.8598 22.0898 44.7281 22.0898C46.0992 22.0898 47.5465 23.1258 48.491 24.4055C48.5672 24.5273 48.6281 24.573 48.6586 24.573C48.7348 24.573 48.6586 24.2684 48.6281 23.9637C48.5977 23.7199 48.5977 23.4762 48.6891 23.4C47.3332 23.0191 46.2973 21.3738 46.7543 21.3738C46.9066 21.3738 47.2266 21.5566 47.7445 22.0441H47.8207C48.6738 22.0441 49.3441 22.7145 49.8621 23.3848C50.3953 24.0551 50.7914 24.7254 51.1418 24.7254C51.2789 24.7254 51.416 24.6035 51.5379 24.3293C51.477 24.2379 51.3246 23.9789 51.2484 23.7199C51.157 23.4 51.157 23.0801 51.5684 23.0801C51.7359 23.0801 51.9645 23.141 52.2844 23.2629C53.3203 22.9887 51.6293 20.2922 53.0004 20.2922C53.1375 20.2922 53.3051 20.3227 53.5184 20.3836C53.5031 20.8559 53.7164 21.0234 53.9145 21.0234C54.3105 21.0234 54.7066 20.4598 53.7469 20.2922C54.1125 19.9418 54.3258 19.8047 54.4781 19.8047C55.0113 19.8047 54.5848 21.5719 56.4281 21.5719C57.0527 23.0496 51.0047 21.6785 52.9395 24.5121C53.3812 24.832 53.9297 24.893 54.4629 24.893C54.6305 24.893 54.7828 24.893 54.9352 24.8777C55.0875 24.8777 55.2398 24.8625 55.377 24.8625C56.3215 24.8625 56.9918 25.091 56.5805 27.041C56.0777 27.4066 55.5141 27.5285 54.9352 27.5285C54.4172 27.5285 53.8992 27.4371 53.3965 27.3457C52.8937 27.2543 52.4062 27.1629 51.9645 27.1629C51.2789 27.1629 50.7305 27.3914 50.3953 28.1836C48.6129 27.4523 46.2668 27.4219 46.4953 25.2129C43.3875 25.6547 40.1426 25.4262 37.8574 27.3305C37.7203 30.1184 32.9367 31.0172 34.0945 34.1859C32.7082 37.1109 35.7703 41.209 38.8934 41.209C39 41.209 39.1219 41.209 39.2285 41.1937C40.9348 41.1785 42.6562 40.4168 44.1645 40.4168C44.9414 40.4168 45.6422 40.6148 46.2516 41.2242C46.3887 41.209 46.5105 41.1937 46.6172 41.1937C48.948 41.1937 45.8707 44.8957 48.6586 45.5203C51.1875 48.1406 47.1047 50.8371 49.1004 53.3508C49.3137 55.316 50.2887 56.9613 50.2887 58.8809C50.5477 58.9113 50.7914 58.9266 51.0504 58.9266C54.2648 58.9266 56.2758 56.1234 58.1648 54.0059C57.5859 50.8371 62.659 50.2125 60.9223 46.6629C60.1148 42.7781 64.7461 40.4777 64.4871 36.593C64.5328 36.0445 64.3805 35.877 64.152 35.877C63.9234 35.877 63.5883 36.0445 63.2684 36.1969C62.9332 36.3645 62.5676 36.5168 62.2781 36.5168C61.8973 36.5168 61.6078 36.2578 61.5773 35.4047C59.3379 33.3176 58.3172 30.484 56.2301 28.1836C58.9418 29.4937 60.4805 32.4492 61.7297 35.1305C61.8363 35.1609 61.943 35.1762 62.0648 35.1762C64.2738 35.1762 67.3512 29.8898 63.9996 28.6102C63.8168 29.1129 63.573 29.2957 63.2836 29.2957C62.7809 29.2957 62.202 28.6863 61.7906 28.0922C61.3793 27.4828 61.166 26.8734 61.3945 26.8734C61.5469 26.8734 61.882 27.1172 62.4609 27.757C63.116 28.1684 63.7559 28.275 64.4262 28.275C65.0812 28.275 65.7516 28.1684 66.4523 28.1074C67.3359 28.4578 67.7168 29.5852 67.991 29.5852C68.0367 29.5852 68.0977 29.5395 68.1434 29.4328C68.8441 31.1086 69.6516 34.0945 70.3828 34.902C70.002 32.3426 69.9105 29.6309 69.2555 27.1172ZM60.7547 23.598C59.0332 23.1562 58.4695 21.0234 57.1137 19.7895C57.0984 19.4543 57.6012 19.5152 57.4793 18.9516C59.3074 19.5152 58.7133 20.0789 58.5457 20.1855C59.216 21.2977 61.0898 22.0594 60.7547 23.598ZM37.0957 12.0047C35.4352 12.4922 35.2066 11.959 35.4961 12.9797C35.618 13.0711 35.8465 13.1016 36.075 13.1016C36.8824 13.1168 37.9793 12.6445 37.0957 12.0047ZM61.4859 53.9754C63.6645 52.132 63.9387 49.9383 64.0453 47.7141C63.0703 49.6184 60.1758 51.7207 61.4859 53.9754ZM51.5684 24.2684C51.5531 24.2836 51.5531 24.2836 51.5531 24.2988C51.5684 24.3293 51.5836 24.3293 51.5836 24.3293C51.5836 24.3293 51.5836 24.3141 51.5684 24.2684ZM39 0C17.4586 0 0 17.4586 0 39C0 60.5414 17.4586 78 39 78C60.5414 78 78 60.5414 78 39C78 17.4586 60.5414 0 39 0ZM39 74.9988C19.1191 74.9988 3.00117 58.8809 3.00117 39C3.00117 19.1191 19.1191 3.00117 39 3.00117C58.8809 3.00117 74.9988 19.1191 74.9988 39C74.9988 58.8809 58.8809 74.9988 39 74.9988Z" fill="#83E4E4"/>
</svg>
