<svg  height="58" viewBox="0 0 871 58" fill="none" xmlns="http://www.w3.org/2000/svg" preserveAspectRatio="none">
<path d="M35.8739 97.5C27.2279 97.5 20.7804 97.4994 15.9613 97.0346C11.1321 96.5688 8.04843 95.6437 6.04857 93.8829C3.06124 91.2527 1.28642 87.5102 1.1402 83.5327C1.04232 80.87 2.27736 77.8968 4.97256 73.8628C7.66214 69.8371 11.7417 64.8443 17.2128 58.1496L57.0938 9.34956C59.9357 5.87215 61.2974 4.21326 62.9883 3.05093C64.2609 2.17612 65.6651 1.51023 67.1477 1.07841C69.1177 0.504669 71.2639 0.5 75.7549 0.5L802.857 0.5C807.738 0.5 810.07 0.505447 812.181 1.17108C813.769 1.6717 815.259 2.44203 816.585 3.4483C818.349 4.78623 819.701 6.68637 822.523 10.669L857.092 59.469C861.73 66.0165 865.187 70.8972 867.431 74.8224C869.678 78.753 870.656 81.6397 870.441 84.21C870.119 88.0521 868.281 91.6078 865.332 94.0913C863.359 95.7527 860.438 96.6231 855.931 97.0616C851.431 97.4994 845.45 97.5 837.427 97.5L35.8739 97.5Z"
  fill="#11161B" />
</svg>
