<svg width="25" height="23" viewBox="0 0 25 23" fill="none" xmlns="http://www.w3.org/2000/svg">
<path fill-rule="evenodd" clip-rule="evenodd" d="M12.1755 0.00114186H21.4526L21.4773 0.0276025L21.6537 0.42804L21.8301 0.830242V0.863759L20.7593 3.83441L20.7487 3.8644H11.6322C9.68641 3.8644 8.11112 4.23837 6.95567 4.97751C5.80023 5.71664 4.93055 6.88091 4.36782 8.43856C3.96739 9.50757 3.84567 10.3896 4.0009 11.0582C4.20643 11.3257 4.48881 11.5487 4.84744 11.7268C5.11047 11.2387 5.4008 10.7651 5.71725 10.3084C6.3741 9.3776 7.19552 8.5747 8.14104 7.93926C9.1093 7.30698 10.1811 6.84962 11.3075 6.58801C12.6295 6.29025 13.9816 6.14699 15.3366 6.16111H16.026L16.0352 6.13648H19.244L19.2527 6.16111H24.6348L24.6472 6.18757L24.8236 6.58977L25 6.99021V7.02372L23.9275 9.99614L23.9169 10.0244H18.5669L16.2769 16.1174L16.2663 16.1474H7.13359C7.08539 16.5492 7.09762 16.9074 7.17082 17.2199C7.77765 18.0102 9.06187 18.4124 11.0023 18.4124H16.963L19.1928 12.3194L19.2034 12.2894H22.4086L22.4192 12.3211L22.5762 12.8504L22.7314 13.3796V13.4078L21.0979 17.8479L19.4556 22.2809L19.445 22.3092H10.2632C9.91293 22.3627 9.55908 22.3892 9.20476 22.3885C8.25419 22.392 7.31424 22.1887 6.45007 21.7927C5.5859 21.3967 4.81819 20.8175 4.20017 20.0953C3.56159 19.4567 3.2176 18.6047 3.17702 17.5815C3.15455 17.0147 3.22302 16.3727 3.37853 15.6617C2.31841 15.3127 1.55536 14.7763 1.09729 14.0553L1.02673 13.9371C0.39167 13.2932 0.0406249 12.4465 0.00357996 11.4216C-0.0334649 10.3966 0.217029 9.13007 0.753298 7.65356C1.19389 6.41074 1.79778 5.23203 2.54909 4.14841C3.20283 3.21652 4.02125 2.41186 4.96407 1.77401C5.93516 1.14221 7.01004 0.686583 8.13935 0.42804C9.46348 0.128867 10.8181 -0.0144057 12.1755 0.00114186ZM3.82205 15.7923C3.53414 17.3283 3.70641 18.5337 4.33953 19.3914C5.21979 20.5839 7.08438 21.189 9.90685 21.189H18.7412L21.8018 12.7533H19.4838L17.2788 18.8375L17.2682 18.8657H10.8806C8.79727 18.8657 7.41779 18.4477 6.77744 17.6186C6.47234 17.2235 6.30541 16.7248 6.28101 16.1307C5.34888 16.0905 4.5286 15.9775 3.82205 15.7923ZM18.9739 8.94124H23.1901L24.0351 6.61799H19.4051L19.6074 7.2249V7.25489L18.9739 8.94124ZM15.8586 6.61799H15.2149C13.933 6.60554 12.654 6.7399 11.4028 7.01843C10.3259 7.26273 9.30021 7.69379 8.37213 8.29207C7.46802 8.88766 6.68309 9.64687 6.05771 10.5306C5.75443 10.9672 5.47711 11.4205 5.22698 11.8882C5.81934 12.1033 6.57135 12.2236 7.48113 12.2478C8.02211 11.3546 8.69082 10.6437 9.47995 10.1302C10.6918 9.34168 12.3589 8.94124 14.4369 8.94124H15.0077L15.8586 6.61799ZM14.6105 10.0256C12.751 10.0494 11.2394 10.4227 10.1238 11.1375C9.65309 11.4391 9.22934 11.8114 8.85438 12.2524H13.7949L14.6105 10.0256ZM17.387 10.0244L15.5713 15.029H7.38725C7.43162 14.8892 7.4812 14.7456 7.53598 14.5985C7.79476 13.8822 8.11882 13.2491 8.5056 12.7023H14.1L14.1106 12.6723L15.0703 10.0244H17.387ZM18.6228 6.61799L17.7799 8.94124H15.4628L16.3048 6.61799H18.6228ZM7.22909 12.6948C7.04213 13.051 6.87322 13.4324 6.72275 13.8382C6.56688 14.2586 6.45239 14.6549 6.37861 15.0257C5.5089 15.0092 4.73598 14.9318 4.06056 14.7941C4.14815 14.4882 4.25114 14.1713 4.36952 13.8435C4.54644 13.336 4.75281 12.8399 4.98737 12.3577C5.58733 12.5551 6.33572 12.6661 7.22909 12.6948ZM3.63068 14.695C2.49439 14.4002 1.67321 13.9113 1.17138 13.2315C0.291119 12.039 0.301703 10.1744 1.20137 7.68355C1.61066 6.50789 2.178 5.39337 2.88779 4.37068C3.51327 3.48601 4.29815 2.72567 5.20222 2.12858C6.13022 1.53017 7.15596 1.09909 8.23284 0.854939C9.48457 0.575642 10.7643 0.44128 12.0467 0.454501H20.8669L20.0219 2.77775H11.267C9.19072 2.77775 7.5237 3.17642 6.3118 3.96495C5.0999 4.75347 4.17201 5.99889 3.5546 7.67826C2.93718 9.35763 2.96894 10.6295 3.60928 11.4674C3.84209 11.7721 4.17258 12.0184 4.59899 12.2086C4.34233 12.7293 4.11603 13.2652 3.92145 13.8135C3.81297 14.1162 3.71598 14.4101 3.63068 14.695Z" fill="#83E4E4"/>
</svg>
