<svg width="770" height="117" viewBox="0 0 771 118" fill="none" xmlns="http://www.w3.org/2000/svg" preserveAspectRatio="none">
<path d="M11.7915 37.0022L52.4844 104.802C55.2231 109.365 56.5374 111.543 58.3663 113.085C59.7407 114.244 61.3186 115.137 63.0195 115.719C65.283 116.494 67.8264 116.5 73.1482 116.5L703.198 116.5C708.885 116.5 711.602 116.493 713.986 115.625C715.775 114.974 717.419 113.976 718.823 112.689C720.693 110.975 721.954 108.567 724.578 103.523L759.851 35.7229C763.075 29.5269 765.475 24.9123 766.961 21.2186C768.447 17.5241 768.986 14.828 768.562 12.4548C767.929 8.90187 765.993 5.71287 763.134 3.51111C761.224 2.0404 758.584 1.27353 754.62 0.887006C750.657 0.500567 745.456 0.5 738.472 0.5L32.4554 0.5C25.0357 0.5 19.5079 0.50057 15.3194 0.909551C11.128 1.31883 8.36856 2.13099 6.42899 3.68549C3.5273 6.01109 1.63001 9.36262 1.12925 13.0474C0.79452 15.5104 1.51818 18.2943 3.32425 22.0988C5.12903 25.9005 7.97322 30.6404 11.7915 37.0022Z"
  stroke-width="2" stroke="#83E4E4"/>
</svg>
