<svg width="159" height="159" viewBox="0 0 159 159" fill="none" xmlns="http://www.w3.org/2000/svg">
<path d="M61.2879 58.5919C68.7959 61.8032 74.9985 64.5083 79.2362 66.3777C80.6831 67.0035 82.0281 67.7952 83.233 68.7334L83.2363 68.736C84.4503 69.6894 85.5121 70.7816 86.3904 71.9851L86.5827 72.2485V72.3112C87.9039 74.2648 88.704 76.4575 88.9106 78.73C90.2968 92.3302 91.6782 105.93 93.0549 119.53C93.5659 122.559 94.9565 125.448 97.1205 127.934C98.6041 129.609 100.42 131.062 102.493 132.227L102.498 132.23C106.809 134.684 110.843 136.976 114.579 139.1C123.434 144.132 130.611 148.211 135.818 151.218L135.827 151.223C138.252 152.66 140.841 153.889 143.556 154.893C147.436 156.313 151.527 157.27 155.71 157.737L120.983 130.307L120.982 130.306C114.269 124.997 110.067 117.728 109.247 109.885L110.242 109.781L109.247 109.885L104.397 63.4453C104.397 63.4442 104.397 63.4431 104.396 63.4421C104.388 63.3704 104.36 63.2912 104.305 63.2103L105.129 62.6436L104.305 63.2103C104.248 63.1273 104.161 63.0431 104.041 62.9722L104.04 62.9715L1.48216 2.04368C3.80967 11.6434 8.32522 20.7808 14.7925 28.9359L14.7997 28.945L14.7997 28.945C19.7581 35.3484 25.9541 41.0035 33.1325 45.6692C37.6436 48.5669 40.7137 49.8662 51.1842 54.2973C53.9719 55.4771 57.2842 56.8788 61.2879 58.5919ZM61.2879 58.5919L60.8947 59.5113L61.2879 58.5919Z" stroke="#83E4E4" stroke-opacity="0.9" stroke-width="2"/>
</svg>
