<svg width="390" height="198" viewBox="0 0 340 230" fill="none" xmlns="http://www.w3.org/2000/svg">
<path d="M1.76817 1.57758L256.222 78.1759L256.223 78.1762C256.728 78.3279 257.098 78.5105 257.334 78.6846C257.551 78.8442 257.591 78.9463 257.594 78.9555C257.595 78.9559 257.595 78.9561 257.595 78.9561L269.494 136.682C271.536 146.588 281.897 155.509 297.974 161.951L297.975 161.951L384.195 196.461C372.952 195.928 361.947 194.678 351.545 192.748C344.78 191.481 338.327 189.928 332.282 188.114L332.275 188.112C319.509 184.376 301.909 179.308 280.19 173.053C271.022 170.413 261.119 167.561 250.536 164.509L250.533 164.508C245.279 163.012 240.683 161.147 236.937 159.003C231.459 155.815 228.071 152.184 226.841 148.51C223.465 131.61 220.077 114.71 216.678 97.8104C216.148 94.8623 214.122 92.1337 210.973 89.7789V89.7027L210.543 89.4044C208.451 87.9522 205.935 86.6421 203.07 85.5022L203.068 85.5011C200.224 84.3791 197.051 83.4328 193.637 82.6849C183.247 80.3623 168.032 77.0001 149.614 73.0082C139.842 70.8896 131.742 69.1529 124.913 67.6885C99.1752 62.1697 91.4747 60.5185 80.268 56.8707C62.4985 51.0186 47.1718 43.9285 34.9179 35.9098L34.918 35.9098L34.9088 35.9039C18.5541 25.454 7.33473 13.7672 1.76817 1.57758Z" stroke="#83E4E4" stroke-width="2"/>
</svg>
