<svg width="10" height="10" viewBox="0 0 10 10" fill="none" xmlns="http://www.w3.org/2000/svg">
<path d="M9 3.15789H6.194L6.7555 1.38579C6.8565 1.06579 6.8055 0.711053 6.618 0.437368C6.4305 0.163684 6.1265 0 5.806 0H5C4.8515 0 4.711 0.0694736 4.6155 0.189474L2.2655 3.15789H1C0.4485 3.15789 0 3.63 0 4.21053V8.94737C0 9.52789 0.4485 10 1 10H7.6535C7.85694 9.99929 8.05539 9.9336 8.22261 9.81162C8.38982 9.68964 8.51793 9.51711 8.59 9.31684L9.9685 5.4479C9.98943 5.3888 10.0001 5.32623 10 5.26316V4.21053C10 3.63 9.5515 3.15789 9 3.15789ZM1 4.21053H2V8.94737H1V4.21053ZM9 5.16789L7.6535 8.94737H3V3.87474L5.234 1.05263H5.807L5.026 3.51737C5.00065 3.59648 4.99357 3.68082 5.00537 3.76338C5.01717 3.84595 5.04749 3.92436 5.09383 3.99213C5.14017 4.05989 5.20119 4.11505 5.27182 4.15303C5.34246 4.19101 5.42068 4.21072 5.5 4.21053H9V5.16789Z" fill="#83E4E4"/>
</svg>
