<svg width="22" height="18" viewBox="0 0 22 18" fill="none" xmlns="http://www.w3.org/2000/svg">
<path d="M18 5.23828C18 7.58765 16.2091 9.49219 14 9.49219C11.7909 9.49219 10 7.58765 10 5.23828C10 2.88891 11.7909 0.984375 14 0.984375C16.2091 0.984375 18 2.88891 18 5.23828Z" fill="#83E4E4"/>
<path d="M14 10.5557C18.1 10.5557 22 13.3207 22 15.8731C22 18 14 18 14 18C14 18 6 18 6 15.8731C6 13.3207 9.9 10.5557 14 10.5557Z" fill="#83E4E4"/>
<path d="M5 4.1748V7.36524H8V9.4922H5V12.6826H3V9.4922H0V7.36524H3V4.1748H5Z" fill="#83E4E4"/>
</svg>
