<svg width="23" height="19" viewBox="0 0 23 19" fill="none" xmlns="http://www.w3.org/2000/svg">
<path d="M11.5 11.1758C12.881 11.1758 14.131 10.55 15.036 9.53856C15.94 8.52826 16.5 7.13129 16.5 5.58791C16.5 4.04453 15.94 2.64755 15.036 1.63726C14.131 0.625846 12.881 0 11.5 0C10.119 0 8.869 0.625846 7.964 1.63726C7.06 2.64755 6.5 4.04453 6.5 5.58791C6.5 7.13129 7.06 8.52826 7.964 9.53856C8.42781 10.0584 8.97897 10.4706 9.5858 10.7516C10.1926 11.0325 10.8432 11.1767 11.5 11.1758ZM19.5 12.2934C19.8285 12.2941 20.1539 12.2224 20.4575 12.0822C20.7611 11.9421 21.037 11.7363 21.2692 11.4767C21.5015 11.2171 21.6856 10.9088 21.811 10.5695C21.9364 10.2302 22.0007 9.86656 22 9.49944C22 8.72831 21.721 8.02982 21.268 7.52356C21.0361 7.26374 20.7605 7.05771 20.4571 6.91731C20.1536 6.77692 19.8284 6.70493 19.5 6.70549C19.1715 6.70475 18.8461 6.77652 18.5425 6.91667C18.2389 7.05681 17.963 7.26259 17.7308 7.52218C17.4985 7.78176 17.3144 8.09006 17.189 8.42937C17.0636 8.76868 16.9993 9.13233 17 9.49944C16.9995 9.86651 17.0638 10.2301 17.1892 10.5693C17.3147 10.9086 17.4988 11.2168 17.7311 11.4764C17.9633 11.7359 18.2391 11.9417 18.5427 12.0819C18.8462 12.2221 19.1715 12.294 19.5 12.2934ZM19.5 12.9528C18.169 12.9528 17.168 13.4065 16.583 14.0346C15.468 13.0098 13.705 12.2934 11.5 12.2934C9.234 12.2934 7.505 13.0176 6.408 14.0413C5.812 13.4099 4.8 12.9528 3.5 12.9528C1.312 12.9528 0 14.1709 0 15.3913C0 16.0004 1.312 16.6117 3.5 16.6117C4.104 16.6117 4.646 16.5547 5.123 16.4631L5.083 16.7648C5.083 17.8824 7.489 19 11.5 19C15.262 19 17.917 17.8824 17.917 16.7648L17.897 16.4799C18.36 16.5614 18.892 16.6117 19.5 16.6117C21.551 16.6117 23 16.0004 23 15.3913C23 14.1709 21.627 12.9528 19.5 12.9528ZM3.5 12.2934C4.19 12.2934 4.815 11.9816 5.268 11.4753C5.50049 11.2161 5.68484 10.9081 5.81046 10.569C5.93608 10.2299 6.0005 9.86645 6 9.49944C6.00066 9.13233 5.93644 8.76868 5.81104 8.42937C5.68564 8.09006 5.50151 7.78176 5.26924 7.52218C5.03696 7.26259 4.7611 7.05681 4.45749 6.91667C4.15388 6.77652 3.82849 6.70475 3.5 6.70549C3.17155 6.7049 2.84622 6.77677 2.54267 6.91697C2.23912 7.05717 1.96331 7.26295 1.73106 7.52251C1.49881 7.78206 1.31468 8.0903 1.18923 8.42955C1.06378 8.76879 0.999473 9.13237 1 9.49944C0.999341 9.86656 1.06356 10.2302 1.18896 10.5695C1.31436 10.9088 1.49849 11.2171 1.73076 11.4767C1.96304 11.7363 2.2389 11.9421 2.54251 12.0822C2.84612 12.2224 3.17151 12.2941 3.5 12.2934Z" fill="#83E4E4"/>
</svg>
