<svg width="21" height="12" viewBox="0 0 21 12" fill="none" xmlns="http://www.w3.org/2000/svg">
<path d="M16.625 10.2857V12H6.125V10.2857C6.125 10.2857 6.125 6.85714 11.375 6.85714C16.625 6.85714 16.625 10.2857 16.625 10.2857ZM14 2.57143C14 2.06285 13.846 1.56569 13.5576 1.14282C13.2692 0.719951 12.8592 0.390365 12.3795 0.195739C11.8999 0.00111416 11.3721 -0.0498087 10.8629 0.0494104C10.3537 0.14863 9.88596 0.393534 9.51884 0.753155C9.15173 1.11278 8.90172 1.57096 8.80044 2.06977C8.69915 2.56858 8.75114 3.08561 8.94982 3.55547C9.1485 4.02534 9.48495 4.42694 9.91663 4.70949C10.3483 4.99205 10.8558 5.14286 11.375 5.14286C12.0712 5.14286 12.7389 4.87194 13.2312 4.3897C13.7234 3.90747 14 3.25341 14 2.57143ZM16.8 6.90857C17.2783 7.34083 17.6639 7.86209 17.9343 8.44193C18.2048 9.02176 18.3546 9.64855 18.375 10.2857V12H21V10.2857C21 10.2857 21 7.32857 16.8 6.90857ZM15.75 9.78431e-07C15.4856 0.000155961 15.2229 0.040641 14.9713 0.120001C15.4832 0.839118 15.7576 1.69473 15.7576 2.57143C15.7576 3.44813 15.4832 4.30374 14.9713 5.02286C15.2229 5.10222 15.4856 5.1427 15.75 5.14286C16.4462 5.14286 17.1139 4.87194 17.6062 4.3897C18.0984 3.90747 18.375 3.25341 18.375 2.57143C18.375 1.88944 18.0984 1.23539 17.6062 0.753155C17.1139 0.270919 16.4462 9.78431e-07 15.75 9.78431e-07ZM7 4.28571H4.375V1.71429H2.625V4.28571H0V6H2.625V8.57143H4.375V6H7V4.28571Z" fill="#83E4E4"/>
</svg>
