<svg width="47" height="47" viewBox="0 0 47 47" fill="none" xmlns="http://www.w3.org/2000/svg">
<path d="M0.583168 23.4997C0.583168 29.5776 2.9976 35.4065 7.29531 39.7042C11.593 44.0019 17.422 46.4163 23.4998 46.4163C26.5093 46.4163 29.4893 45.8236 32.2697 44.6719C35.05 43.5202 37.5764 41.8322 39.7044 39.7042C44.0021 35.4065 46.4165 29.5776 46.4165 23.4997C46.4165 17.4218 44.0021 11.5929 39.7044 7.29514C35.4067 2.99744 29.5777 0.583008 23.4998 0.583008C20.4904 0.583008 17.5104 1.17577 14.73 2.32744C11.9496 3.47911 9.42331 5.16714 7.29531 7.29514C5.1673 9.42315 3.47926 11.9495 2.32759 14.7298C1.17592 17.5102 0.583168 20.4902 0.583168 23.4997ZM18.9165 12.0413L30.3748 23.4997L18.9165 34.958V12.0413Z" fill="#83E4E4"/>
</svg>
