<svg width="16" height="16" viewBox="0 0 16 16" fill="none" xmlns="http://www.w3.org/2000/svg">
<path d="M8 6.22222C7.02222 6.22222 6.22222 7.02222 6.22222 8C6.22222 8.97778 7.02222 9.77778 8 9.77778C8.97778 9.77778 9.77778 8.97778 9.77778 8C9.77778 7.02222 8.97778 6.22222 8 6.22222ZM14.2222 0H1.77778C1.30628 0 0.854097 0.187301 0.520699 0.520699C0.187301 0.854097 0 1.30628 0 1.77778V14.2222C0 14.6937 0.187301 15.1459 0.520699 15.4793C0.854097 15.8127 1.30628 16 1.77778 16H14.2222C14.6937 16 15.1459 15.8127 15.4793 15.4793C15.8127 15.1459 16 14.6937 16 14.2222V1.77778C16 1.30628 15.8127 0.854097 15.4793 0.520699C15.1459 0.187301 14.6937 0 14.2222 0ZM12.6667 8C12.6667 8.20444 12.6489 8.40889 12.6222 8.60444L13.9378 9.63556C14.0533 9.73333 14.0889 9.90222 14.0089 10.0356L12.7644 12.1867C12.6844 12.32 12.5244 12.3733 12.3822 12.32L10.8356 11.6978C10.5156 11.9467 10.16 12.1511 9.78667 12.3111L9.55556 13.9556C9.52889 14.1067 9.39556 14.2222 9.24444 14.2222H6.75556C6.60444 14.2222 6.47111 14.1067 6.44444 13.9644L6.21333 12.32C5.83111 12.16 5.48445 11.9556 5.16444 11.7067L3.61778 12.3289C3.47556 12.3822 3.31556 12.3289 3.23556 12.1956L1.99111 10.0444C1.9536 9.98017 1.94016 9.90465 1.95319 9.83138C1.96622 9.75811 2.00486 9.69186 2.06222 9.64444L3.37778 8.61333C3.35111 8.40889 3.33333 8.20444 3.33333 8C3.33333 7.79556 3.35111 7.59111 3.37778 7.39556L2.06222 6.36444C2.00486 6.31703 1.96622 6.25078 1.95319 6.17751C1.94016 6.10424 1.9536 6.02872 1.99111 5.96444L3.23556 3.81333C3.31556 3.68 3.47556 3.62667 3.61778 3.68L5.16444 4.30222C5.48445 4.05333 5.84 3.84889 6.21333 3.68889L6.44444 2.04444C6.47111 1.89333 6.60444 1.77778 6.75556 1.77778H9.24444C9.39556 1.77778 9.52889 1.89333 9.55556 2.03556L9.78667 3.68C10.1689 3.84 10.5156 4.04444 10.8356 4.29333L12.3822 3.67111C12.5244 3.61778 12.6844 3.67111 12.7644 3.80444L14.0089 5.95556C14.0889 6.08889 14.0533 6.25778 13.9378 6.35556L12.6222 7.38667C12.6489 7.59111 12.6667 7.79556 12.6667 8Z" fill="#83E4E4"/>
</svg>
