<svg width="73" height="67" viewBox="0 0 73 67" fill="none" xmlns="http://www.w3.org/2000/svg">
<path d="M69.3911 14.0867C67.1356 16.9612 64.5596 19.5691 61.713 21.8598C60.5123 22.8287 59.3353 23.6847 58.1861 24.4357C57.4847 20.9708 56.7846 17.5046 56.0858 14.0372L52.3389 13.0246L51.7683 11.2949C51.9993 11.2109 52.1975 11.0553 52.3337 10.8506C52.4699 10.646 52.537 10.4031 52.5252 10.1576C52.5134 9.91202 52.4233 9.67671 52.2681 9.48606C52.1129 9.29541 51.9008 9.15944 51.6628 9.09806C51.4247 9.03668 51.1733 9.0531 50.9452 9.14494C50.7172 9.23677 50.5246 9.39919 50.3955 9.60841C50.2665 9.81763 50.2078 10.0627 50.228 10.3077C50.2483 10.5527 50.3464 10.7847 50.5081 10.9699L49.2637 12.1944L46.8246 11.5346L45.7328 9.37882C46.0338 9.18869 46.2735 8.9159 46.4235 8.59307C46.5735 8.27025 46.6272 7.91106 46.5784 7.55847C46.5296 7.20588 46.3802 6.87482 46.1481 6.6049C45.9161 6.33498 45.6112 6.13762 45.27 6.03643C44.9287 5.93524 44.5655 5.9345 44.2238 6.03431C43.8821 6.13411 43.5765 6.33024 43.3433 6.59922C43.1102 6.8682 42.9595 7.19864 42.9092 7.55103C42.8589 7.90342 42.9113 8.26282 43.0599 8.58625C43.1731 8.83244 43.3396 9.05038 43.5473 9.22427L42.3129 10.9957C41.9087 10.9481 41.4985 10.9045 41.0824 10.8649C40.0627 9.3141 39.0462 7.76726 38.033 6.2244C38.2324 5.35842 38.2992 4.4672 38.2312 3.58118C38.1864 3.04685 38.0936 2.51765 37.9538 2L36.6837 3.46625L35.2689 2.02774C34.8927 3.42058 34.9057 4.88996 35.3066 6.27591L32.382 10.7757C31.9263 10.8101 31.4772 10.8484 31.0346 10.8906L29.402 8.8795C29.7081 8.63158 29.9273 8.29261 30.0279 7.91172C30.1285 7.53084 30.1051 7.12782 29.9613 6.76109C29.8175 6.39435 29.5606 6.08293 29.2279 5.87198C28.8952 5.66102 28.504 5.56148 28.1109 5.58778C27.7178 5.61409 27.3434 5.76486 27.0418 6.01826C26.7401 6.27166 26.527 6.61452 26.4333 6.99716C26.3396 7.37979 26.3702 7.78232 26.5206 8.14641C26.6711 8.5105 26.9335 8.81723 27.2699 9.02217L26.2792 10.9818L24.0838 11.709L22.8236 10.6469C22.9735 10.4531 23.0575 10.2164 23.0634 9.97139C23.0692 9.72641 22.9966 9.48597 22.8561 9.28518C22.7157 9.08438 22.5147 8.93375 22.2825 8.85527C22.0504 8.77679 21.7992 8.77456 21.5657 8.84893C21.3322 8.92329 21.1286 9.07034 20.9846 9.26862C20.8406 9.46689 20.7638 9.70601 20.7653 9.95106C20.7668 10.1961 20.8466 10.4343 20.993 10.6307C21.1395 10.8272 21.3449 10.9717 21.5793 11.0432C21.4208 11.596 21.2642 12.1489 21.1057 12.7017C20.7979 12.8021 20.4875 12.9018 20.1745 13.0009C18.9156 13.3972 17.6838 13.7459 16.4791 14.0471C15.7896 17.4908 15.0961 20.9385 14.3986 24.3901C13.2474 23.6272 12.0526 22.7653 10.832 21.7905C7.98844 19.4969 5.41517 16.8871 3.16195 14.0114C1.69157 17.0325 0.951837 20.3569 1.00243 23.7164C1.05303 27.076 1.89253 30.3766 3.45322 33.3521L14.9078 40.2415C15.0168 40.5625 15.1852 41.0341 15.4012 41.6106C15.6172 42.1872 15.8569 42.7777 16.0967 43.3385L5.397 36.9404C5.35539 38.2957 5.43663 41.7612 7.72913 45.1039C8.71332 46.5342 9.96805 47.758 11.4225 48.7061L20.6956 51.7337C21.9815 53.6193 23.4047 55.4074 24.9537 57.0836C28.2311 60.6159 32.0324 63.6232 36.224 66L36.2834 65.9663L36.3429 66C37.7412 65.1931 39.0976 64.3155 40.4068 63.3707C43.0221 61.5303 45.4392 59.4233 47.6192 57.0836C49.1483 55.4317 50.5536 53.6694 51.8237 51.811L61.1364 48.7814C62.5873 47.8373 63.8398 46.6191 64.8239 45.195C67.1184 41.8524 67.2016 38.3849 67.156 37.0316L56.4563 43.4336C56.7086 42.8431 56.9523 42.2374 57.1875 41.6166C57.3856 41.0856 57.5421 40.6398 57.6511 40.3247L58.087 40.0612L69.1077 33.4353C70.6689 30.4583 71.508 27.1559 71.5572 23.7948C71.6065 20.4337 70.8644 17.1081 69.3911 14.0867Z"
   stroke="#83E4E4" stroke-width="1"
/>
<path d="M69.3911 14.0867C67.1356 16.9612 64.5596 19.5691 61.713 21.8598C60.5123 22.8287 59.3353 23.6847 58.1861 24.4357C57.4847 20.9708 56.7846 17.5046 56.0858 14.0372L52.3389 13.0246L51.7683 11.2949C51.9993 11.2109 52.1975 11.0553 52.3337 10.8506C52.4699 10.646 52.537 10.4031 52.5252 10.1576C52.5134 9.91202 52.4233 9.67671 52.2681 9.48606C52.1129 9.29541 51.9008 9.15944 51.6628 9.09806C51.4247 9.03668 51.1733 9.0531 50.9452 9.14494C50.7172 9.23677 50.5246 9.39919 50.3955 9.60841C50.2665 9.81763 50.2078 10.0627 50.228 10.3077C50.2483 10.5527 50.3464 10.7847 50.5081 10.9699L49.2637 12.1944L46.8246 11.5346L45.7328 9.37882C46.0338 9.18869 46.2735 8.9159 46.4235 8.59307C46.5735 8.27025 46.6272 7.91106 46.5784 7.55847C46.5296 7.20588 46.3802 6.87482 46.1481 6.6049C45.9161 6.33498 45.6112 6.13762 45.27 6.03643C44.9287 5.93524 44.5655 5.9345 44.2238 6.03431C43.8821 6.13411 43.5765 6.33024 43.3433 6.59922C43.1102 6.8682 42.9595 7.19864 42.9092 7.55103C42.8589 7.90342 42.9113 8.26282 43.0599 8.58625C43.1731 8.83244 43.3396 9.05038 43.5473 9.22427L42.3129 10.9957C41.9087 10.9481 41.4985 10.9045 41.0824 10.8649C40.0627 9.3141 39.0462 7.76726 38.033 6.2244C38.2324 5.35842 38.2992 4.4672 38.2312 3.58118C38.1864 3.04685 38.0936 2.51765 37.9538 2L36.6837 3.46625L35.2689 2.02774C34.8927 3.42058 34.9057 4.88996 35.3066 6.27591L32.382 10.7757C31.9263 10.8101 31.4772 10.8484 31.0346 10.8906L29.402 8.8795C29.7081 8.63158 29.9273 8.29261 30.0279 7.91172C30.1285 7.53084 30.1051 7.12782 29.9613 6.76109C29.8175 6.39435 29.5606 6.08293 29.2279 5.87198C28.8952 5.66102 28.504 5.56148 28.1109 5.58778C27.7178 5.61409 27.3434 5.76486 27.0418 6.01826C26.7401 6.27166 26.527 6.61452 26.4333 6.99716C26.3396 7.37979 26.3702 7.78232 26.5206 8.14641C26.6711 8.5105 26.9335 8.81723 27.2699 9.02217L26.2792 10.9818L24.0838 11.709L22.8236 10.6469C22.9735 10.4531 23.0575 10.2164 23.0634 9.97139C23.0692 9.72641 22.9966 9.48597 22.8561 9.28518C22.7157 9.08438 22.5147 8.93375 22.2825 8.85527C22.0504 8.77679 21.7992 8.77456 21.5657 8.84893C21.3322 8.92329 21.1286 9.07034 20.9846 9.26862C20.8406 9.46689 20.7638 9.70601 20.7653 9.95106C20.7668 10.1961 20.8466 10.4343 20.993 10.6307C21.1395 10.8272 21.3449 10.9717 21.5793 11.0432C21.4208 11.596 21.2642 12.1489 21.1057 12.7017C20.7979 12.8021 20.4875 12.9018 20.1745 13.0009C18.9156 13.3972 17.6838 13.7459 16.4791 14.0471C15.7896 17.4908 15.0961 20.9385 14.3986 24.3901C13.2474 23.6272 12.0526 22.7653 10.832 21.7905C7.98844 19.4969 5.41517 16.8871 3.16195 14.0114C1.69157 17.0325 0.951837 20.3569 1.00243 23.7164C1.05303 27.076 1.89253 30.3766 3.45322 33.3521L14.9078 40.2415C15.0168 40.5625 15.1852 41.0341 15.4012 41.6106C15.6172 42.1872 15.8569 42.7777 16.0967 43.3385L5.397 36.9404C5.35539 38.2957 5.43663 41.7612 7.72913 45.1039C8.71332 46.5342 9.96805 47.758 11.4225 48.7061L20.6956 51.7337C21.9815 53.6193 23.4047 55.4074 24.9537 57.0836C28.2311 60.6159 32.0324 63.6232 36.224 66L36.2834 65.9663L36.3429 66C37.7412 65.1931 39.0976 64.3155 40.4068 63.3707C43.0221 61.5303 45.4392 59.4233 47.6192 57.0836C49.1483 55.4317 50.5536 53.6694 51.8237 51.811L61.1364 48.7814C62.5873 47.8373 63.8398 46.6191 64.8239 45.195C67.1184 41.8524 67.2016 38.3849 67.156 37.0316L56.4563 43.4336C56.7086 42.8431 56.9523 42.2374 57.1875 41.6166C57.3856 41.0856 57.5421 40.6398 57.6511 40.3247L58.087 40.0612L69.1077 33.4353C70.6689 30.4583 71.508 27.1559 71.5572 23.7948C71.6065 20.4337 70.8644 17.1081 69.3911 14.0867Z"
   stroke="#83E4E4" stroke-width="1"
  />
<path d="M69.3911 14.0867C67.1356 16.9612 64.5596 19.5691 61.713 21.8598C60.5123 22.8287 59.3353 23.6847 58.1861 24.4357C57.4847 20.9708 56.7846 17.5046 56.0858 14.0372L52.3389 13.0246L51.7683 11.2949C51.9993 11.2109 52.1975 11.0553 52.3337 10.8506C52.4699 10.646 52.537 10.4031 52.5252 10.1576C52.5134 9.91202 52.4233 9.67671 52.2681 9.48606C52.1129 9.29541 51.9008 9.15944 51.6628 9.09806C51.4247 9.03668 51.1733 9.0531 50.9452 9.14494C50.7172 9.23677 50.5246 9.39919 50.3955 9.60841C50.2665 9.81763 50.2078 10.0627 50.228 10.3077C50.2483 10.5527 50.3464 10.7847 50.5081 10.9699L49.2637 12.1944L46.8246 11.5346L45.7328 9.37882C46.0338 9.18869 46.2735 8.9159 46.4235 8.59307C46.5735 8.27025 46.6272 7.91106 46.5784 7.55847C46.5296 7.20588 46.3802 6.87482 46.1481 6.6049C45.9161 6.33498 45.6112 6.13762 45.27 6.03643C44.9287 5.93524 44.5655 5.9345 44.2238 6.03431C43.8821 6.13411 43.5765 6.33024 43.3433 6.59922C43.1102 6.8682 42.9595 7.19864 42.9092 7.55103C42.8589 7.90342 42.9113 8.26282 43.0599 8.58625C43.1731 8.83244 43.3396 9.05038 43.5473 9.22427L42.3129 10.9957C41.9087 10.9481 41.4985 10.9045 41.0824 10.8649C40.0627 9.3141 39.0462 7.76726 38.033 6.2244C38.2324 5.35842 38.2992 4.4672 38.2312 3.58118C38.1864 3.04685 38.0936 2.51765 37.9538 2L36.6837 3.46625L35.2689 2.02774C34.8927 3.42058 34.9057 4.88996 35.3066 6.27591L32.382 10.7757C31.9263 10.8101 31.4772 10.8484 31.0346 10.8906L29.402 8.8795C29.7081 8.63158 29.9273 8.29261 30.0279 7.91172C30.1285 7.53084 30.1051 7.12782 29.9613 6.76109C29.8175 6.39435 29.5606 6.08293 29.2279 5.87198C28.8952 5.66102 28.504 5.56148 28.1109 5.58778C27.7178 5.61409 27.3434 5.76486 27.0418 6.01826C26.7401 6.27166 26.527 6.61452 26.4333 6.99716C26.3396 7.37979 26.3702 7.78232 26.5206 8.14641C26.6711 8.5105 26.9335 8.81723 27.2699 9.02217L26.2792 10.9818L24.0838 11.709L22.8236 10.6469C22.9735 10.4531 23.0575 10.2164 23.0634 9.97139C23.0692 9.72641 22.9966 9.48597 22.8561 9.28518C22.7157 9.08438 22.5147 8.93375 22.2825 8.85527C22.0504 8.77679 21.7992 8.77456 21.5657 8.84893C21.3322 8.92329 21.1286 9.07034 20.9846 9.26862C20.8406 9.46689 20.7638 9.70601 20.7653 9.95106C20.7668 10.1961 20.8466 10.4343 20.993 10.6307C21.1395 10.8272 21.3449 10.9717 21.5793 11.0432C21.4208 11.596 21.2642 12.1489 21.1057 12.7017C20.7979 12.8021 20.4875 12.9018 20.1745 13.0009C18.9156 13.3972 17.6838 13.7459 16.4791 14.0471C15.7896 17.4908 15.0961 20.9385 14.3986 24.3901C13.2474 23.6272 12.0526 22.7653 10.832 21.7905C7.98844 19.4969 5.41517 16.8871 3.16195 14.0114C1.69157 17.0325 0.951837 20.3569 1.00243 23.7164C1.05303 27.076 1.89253 30.3766 3.45322 33.3521L14.9078 40.2415C15.0168 40.5625 15.1852 41.0341 15.4012 41.6106C15.6172 42.1872 15.8569 42.7777 16.0967 43.3385L5.397 36.9404C5.35539 38.2957 5.43663 41.7612 7.72913 45.1039C8.71332 46.5342 9.96805 47.758 11.4225 48.7061L20.6956 51.7337C21.9815 53.6193 23.4047 55.4074 24.9537 57.0836C28.2311 60.6159 32.0324 63.6232 36.224 66L36.2834 65.9663L36.3429 66C37.7412 65.1931 39.0976 64.3155 40.4068 63.3707C43.0221 61.5303 45.4392 59.4233 47.6192 57.0836C49.1483 55.4317 50.5536 53.6694 51.8237 51.811L61.1364 48.7814C62.5873 47.8373 63.8398 46.6191 64.8239 45.195C67.1184 41.8524 67.2016 38.3849 67.156 37.0316L56.4563 43.4336C56.7086 42.8431 56.9523 42.2374 57.1875 41.6166C57.3856 41.0856 57.5421 40.6398 57.6511 40.3247L58.087 40.0612L69.1077 33.4353C70.6689 30.4583 71.508 27.1559 71.5572 23.7948C71.6065 20.4337 70.8644 17.1081 69.3911 14.0867Z"
   stroke="#3959FF" stroke-miterlimit="10"
  />
<path d="M69.3911 14.0867C67.1356 16.9612 64.5596 19.5691 61.713 21.8598C60.5123 22.8287 59.3353 23.6847 58.1861 24.4357C57.4847 20.9708 56.7846 17.5046 56.0858 14.0372L52.3389 13.0246L51.7683 11.2949C51.9993 11.2109 52.1975 11.0553 52.3337 10.8506C52.4699 10.646 52.537 10.4031 52.5252 10.1576C52.5134 9.91202 52.4233 9.67671 52.2681 9.48606C52.1129 9.29541 51.9008 9.15944 51.6628 9.09806C51.4247 9.03668 51.1733 9.0531 50.9452 9.14494C50.7172 9.23677 50.5246 9.39919 50.3955 9.60841C50.2665 9.81763 50.2078 10.0627 50.228 10.3077C50.2483 10.5527 50.3464 10.7847 50.5081 10.9699L49.2637 12.1944L46.8246 11.5346L45.7328 9.37882C46.0338 9.18869 46.2735 8.9159 46.4235 8.59307C46.5735 8.27025 46.6272 7.91106 46.5784 7.55847C46.5296 7.20588 46.3802 6.87482 46.1481 6.6049C45.9161 6.33498 45.6112 6.13762 45.27 6.03643C44.9287 5.93524 44.5655 5.9345 44.2238 6.03431C43.8821 6.13411 43.5765 6.33024 43.3433 6.59922C43.1102 6.8682 42.9595 7.19864 42.9092 7.55103C42.8589 7.90342 42.9113 8.26282 43.0599 8.58625C43.1731 8.83244 43.3396 9.05038 43.5473 9.22427L42.3129 10.9957C41.9087 10.9481 41.4985 10.9045 41.0824 10.8649C40.0627 9.3141 39.0462 7.76726 38.033 6.2244C38.2324 5.35842 38.2992 4.4672 38.2312 3.58118C38.1864 3.04685 38.0936 2.51765 37.9538 2L36.6837 3.46625L35.2689 2.02774C34.8927 3.42058 34.9057 4.88996 35.3066 6.27591L32.382 10.7757C31.9263 10.8101 31.4772 10.8484 31.0346 10.8906L29.402 8.8795C29.7081 8.63158 29.9273 8.29261 30.0279 7.91172C30.1285 7.53084 30.1051 7.12782 29.9613 6.76109C29.8175 6.39435 29.5606 6.08293 29.2279 5.87198C28.8952 5.66102 28.504 5.56148 28.1109 5.58778C27.7178 5.61409 27.3434 5.76486 27.0418 6.01826C26.7401 6.27166 26.527 6.61452 26.4333 6.99716C26.3396 7.37979 26.3702 7.78232 26.5206 8.14641C26.6711 8.5105 26.9335 8.81723 27.2699 9.02217L26.2792 10.9818L24.0838 11.709L22.8236 10.6469C22.9735 10.4531 23.0575 10.2164 23.0634 9.97139C23.0692 9.72641 22.9966 9.48597 22.8561 9.28518C22.7157 9.08438 22.5147 8.93375 22.2825 8.85527C22.0504 8.77679 21.7992 8.77456 21.5657 8.84893C21.3322 8.92329 21.1286 9.07034 20.9846 9.26862C20.8406 9.46689 20.7638 9.70601 20.7653 9.95106C20.7668 10.1961 20.8466 10.4343 20.993 10.6307C21.1395 10.8272 21.3449 10.9717 21.5793 11.0432C21.4208 11.596 21.2642 12.1489 21.1057 12.7017C20.7979 12.8021 20.4875 12.9018 20.1745 13.0009C18.9156 13.3972 17.6838 13.7459 16.4791 14.0471C15.7896 17.4908 15.0961 20.9385 14.3986 24.3901C13.2474 23.6272 12.0526 22.7653 10.832 21.7905C7.98844 19.4969 5.41517 16.8871 3.16195 14.0114C1.69157 17.0325 0.951837 20.3569 1.00243 23.7164C1.05303 27.076 1.89253 30.3766 3.45322 33.3521L14.9078 40.2415C15.0168 40.5625 15.1852 41.0341 15.4012 41.6106C15.6172 42.1872 15.8569 42.7777 16.0967 43.3385L5.397 36.9404C5.35539 38.2957 5.43663 41.7612 7.72913 45.1039C8.71332 46.5342 9.96805 47.758 11.4225 48.7061L20.6956 51.7337C21.9815 53.6193 23.4047 55.4074 24.9537 57.0836C28.2311 60.6159 32.0324 63.6232 36.224 66L36.2834 65.9663L36.3429 66C37.7412 65.1931 39.0976 64.3155 40.4068 63.3707C43.0221 61.5303 45.4392 59.4233 47.6192 57.0836C49.1483 55.4317 50.5536 53.6694 51.8237 51.811L61.1364 48.7814C62.5873 47.8373 63.8398 46.6191 64.8239 45.195C67.1184 41.8524 67.2016 38.3849 67.156 37.0316L56.4563 43.4336C56.7086 42.8431 56.9523 42.2374 57.1875 41.6166C57.3856 41.0856 57.5421 40.6398 57.6511 40.3247L58.087 40.0612L69.1077 33.4353C70.6689 30.4583 71.508 27.1559 71.5572 23.7948C71.6065 20.4337 70.8644 17.1081 69.3911 14.0867Z"
   stroke="url(#paint1_linear)" stroke-miterlimit="10"
  />
<defs>
<linearGradient id="paint0_linear" x1="36.2798" y1="2" x2="36.2798" y2="66" gradientUnits="userSpaceOnUse">
<stop stop-color="white"/>
<stop offset="1" stop-color="white" stop-opacity="0"/>
</linearGradient>
<linearGradient id="paint1_linear" x1="36.2798" y1="2" x2="36.2798" y2="66" gradientUnits="userSpaceOnUse">
<stop offset="0.265625" stop-color="white"/>
<stop offset="1" stop-color="white" stop-opacity="0"/>
</linearGradient>
</defs>
</svg>
