<svg width="30" height="29" viewBox="0 0 30 29" fill="none" xmlns="http://www.w3.org/2000/svg">
<path d="M15 0C6.72 0 0 6.496 0 14.5C0 22.504 6.72 29 15 29C23.28 29 30 22.504 30 14.5C30 6.496 23.28 0 15 0ZM15 4.35C17.49 4.35 19.5 6.293 19.5 8.7C19.5 11.107 17.49 13.05 15 13.05C12.51 13.05 10.5 11.107 10.5 8.7C10.5 6.293 12.51 4.35 15 4.35ZM15 24.94C13.2178 24.94 11.4633 24.5137 9.89292 23.699C8.32256 22.8843 6.98517 21.7067 6 20.271C6.045 17.3855 12 15.805 15 15.805C17.985 15.805 23.955 17.3855 24 20.271C23.0148 21.7067 21.6774 22.8843 20.1071 23.699C18.5367 24.5137 16.7822 24.94 15 24.94Z" fill="#83E4E4"/>
</svg>
