<svg width="47" height="47" viewBox="0 0 47 47" fill="none" xmlns="http://www.w3.org/2000/svg">
<path d="M46.4168 23.4997C46.4168 29.5776 44.0024 35.4065 39.7047 39.7042C35.407 44.0019 29.578 46.4163 23.5002 46.4163C20.4907 46.4163 17.5107 45.8236 14.7303 44.6719C11.95 43.5202 9.42364 41.8322 7.29563 39.7042C2.99792 35.4065 0.583496 29.5776 0.583496 23.4997C0.583496 17.4218 2.99792 11.5929 7.29563 7.29514C11.5933 2.99744 17.4223 0.583008 23.5002 0.583008C26.5096 0.583008 29.4896 1.17577 32.27 2.32744C35.0504 3.47911 37.5767 5.16714 39.7047 7.29514C41.8327 9.42315 43.5207 11.9495 44.6724 14.7298C45.8241 17.5102 46.4168 20.4902 46.4168 23.4997ZM28.0835 12.0413L16.6252 23.4997L28.0835 34.958V12.0413Z" fill="#83E4E4"/>
</svg>
