<svg width="200" height="494" viewBox="0 0 200 494" fill="none" xmlns="http://www.w3.org/2000/svg">
<path d="M199.5 27.6667C199.5 22.1958 199.499 18.1275 199.203 14.9617C198.907 11.8006 198.32 9.60025 197.187 7.84251C195.485 5.20267 192.972 3.18681 190.026 2.09813C188.064 1.37324 185.789 1.27757 182.639 1.6744C179.484 2.0718 175.513 2.95384 170.172 4.14065L19.372 37.6518C15.7858 38.4487 13.1242 39.0405 11.0303 39.6809C8.94289 40.3193 7.45479 40.9961 6.20923 41.9457C4.32892 43.3791 2.82765 45.2506 1.83624 47.3971C1.17952 48.819 0.841644 50.4185 0.671265 52.5946C0.500351 54.7776 0.5 57.5042 0.5 61.1779V438.161C0.5 441.934 0.500366 444.735 0.678421 446.974C0.855942 449.206 1.20798 450.841 1.892 452.288C2.92429 454.47 4.48528 456.361 6.43335 457.787C7.72417 458.732 9.26375 459.388 11.4218 459.984C13.5865 460.582 16.3366 461.112 20.0415 461.826L170.842 490.874C176.077 491.883 179.971 492.632 183.061 492.935C186.146 493.237 188.372 493.087 190.287 492.336C193.165 491.21 195.607 489.193 197.258 486.581C198.357 484.842 198.925 482.684 199.212 479.598C199.499 476.506 199.5 472.541 199.5 467.209V27.6667Z" fill="#11161B" stroke="#83E4E4"/>
</svg>
