<svg width="35" height="42" viewBox="0 0 35 42" fill="none" xmlns="http://www.w3.org/2000/svg">
<path d="M17.5 0L0 7.63636V19.0909C0 29.6864 7.46667 39.5945 17.5 42C27.5333 39.5945 35 29.6864 35 19.0909V7.63636L17.5 0ZM17.5 11.4545C20.2222 11.4545 22.9444 13.5545 22.9444 16.2273V19.0909C24.1111 19.0909 25.2778 20.2364 25.2778 21.5727V28.2545C25.2778 29.4 24.1111 30.5455 22.75 30.5455H12.0556C10.8889 30.5455 9.72222 29.4 9.72222 28.0636V21.3818C9.72222 20.2364 10.8889 19.0909 12.0556 19.0909V16.2273C12.0556 13.5545 14.7778 11.4545 17.5 11.4545ZM17.5 13.7455C15.9444 13.7455 14.5833 14.7 14.5833 16.2273V19.0909H20.4167V16.2273C20.4167 14.7 19.0556 13.7455 17.5 13.7455Z" fill="#83E4E4"/>
</svg>
