<svg width="345" height="129" viewBox="0 0 345 129" fill="none" xmlns="http://www.w3.org/2000/svg">
<path d="M29.469 -21C16.7475 -21 10.3867 -21 6.45457 -18.16C3.57246 -16.0783 1.52341 -13.0407 0.672843 -9.58866C-0.487613 -4.879 1.89489 1.01874 6.65989 12.8142L47.38 113.614C49.717 119.399 50.8854 122.292 52.8795 124.374C54.3627 125.923 56.1608 127.136 58.1525 127.931C60.8303 129 63.9499 129 70.1892 129L271.907 129C278.03 129 281.092 129 283.734 127.964C285.699 127.192 287.479 126.015 288.958 124.509C290.946 122.484 292.145 119.667 294.543 114.032L337.434 13.2318C342.502 1.32056 345.037 -4.63508 343.924 -9.40636C343.109 -12.902 341.067 -15.9894 338.17 -18.1081C334.215 -21 327.743 -21 314.798 -21L29.469 -21Z" fill="black"/>
</svg>
